<svg xmlns="http://www.w3.org/2000/svg" viewBox="0 0 1487.99 370.92"><defs><style>.cls-1,.cls-2{fill:#fff;}.cls-1{fill-rule:evenodd;}.cls-3{fill:#fefefe;}</style></defs><title>Fichier 1</title><g id="Calque_2" data-name="Calque 2"><g id="Calque_1-2" data-name="Calque 1"><path class="cls-1" d="M1277.08,46.29c.59-.4.72-.83.49-1.27,5.06-1,15.8,4.14,13.73-5.85-3.06.4-3.73-6-4-6.26-3.54-3.09-10.79-.85-13.42-9.31.22-9.24,17.54-12.89,18-3.91-3.82,1.65-13.09-4.63-11.91,4.2,3.17,4.49,10.33,3.91,9.51,9.56,10-1.54,8.47,17.26-1.24,16.84-.56,0-.63-1.27-.37-1.31-1,.15-.76,1.36-1.82,1.64,1.09-.29-2.87-.16-2.59-.12C1281.57,50.27,1278.49,48,1277.08,46.29Zm39-27.16c1.44.11,2.92-.6,4.45-2.39C1321.11,10.58,1310,14.22,1316.1,19.13Zm34.37,51.5c-14.28-3.59-28.57-6.9-42.79-11.59-10,3.36-20.7.9-31,4.14-5.68,1.79-10.82,5-17.14,4.81l-.9.83c-.46.41-.21.85-.5,1.27.5.61,0,1.16.78,1.78,17.43-1,32.69-7.46,49.72-6.28,18.44,1.27,35,12.85,53.88,15.59C1361.75,74.62,1354.06,76.87,1350.47,70.63Zm-33.6-22.42c3-3,2.86-6.22.46-9.52C1313.24,39.94,1312.75,46.51,1316.87,48.21Zm17.26,1.7q4.2-2.83.29-6.06A3,3,0,0,0,1334.13,49.91Zm13.3,2.8c2.58-2,2.38-4.22-.12-6.5C1343.52,48.53,1343.89,52.47,1347.43,52.71Zm14.38-1.47c3.7-5.56,6.72-16.05,14.83-11,1.3,1.41.8,3.88,2.84,4,2.55-1.46,1.9-3.08,2.39-4.65C1374.09,27.65,1354.1,39.77,1361.81,51.24Zm13.47,8.45c-5.67-3.35-10.09-.91-14.79-8.08C1356.25,58.84,1370.63,65.92,1375.28,59.69ZM1218.57,352.57c1.84.62,3.61,2.91,5.51,2.43-2.23-.79-1.92-2.23-3.7-4.07C1219.18,352.09,1218.78,351,1218.57,352.57Zm3.13-2c2.3,0,5.06,2,5,4.58,2.36-2.26,2.44-5.48,5.89-5.35-2.17-3-4.5-2.56-6.75-3.8C1223.19,348.61,1221.61,347.79,1221.7,350.55Zm14.74,8.95c-1.1-1.2-2.18-2.9-3.38-1.9C1234.18,358.29,1235.19,361.41,1236.44,359.5Zm250-196.49c3.7-7.34-.42-15-1.51-22.62-.55-.5-1.11-.95-1.73-.08C1480.82,147.71,1485.32,155.44,1486.48,163ZM1310.23,321.43c-6.5-3.89-10.9,8.32-3.71,14.13,1.74-.22,3.44.58,5.23-.61C1313.13,330.87,1314.78,324.16,1310.23,321.43Zm42.69-31.32c-1.1-1.11-2.2-2.26-3.42-1C1350.59,290.45,1351.69,291.6,1352.92,290.11Zm21.47-13.71c1.14-.56,3.11-1.2,1.89-3.38C1375.17,274.12,1374.35,275.24,1374.39,276.4Zm-61.45,60.77c.44-.22.87-.1,1.28.49-.36-2.33,3.52-4.33.7-5.6C1316,333.85,1311.62,335.37,1312.94,337.17Zm33.87-10.08c.79-4.44,1.23-8.9-4.12-13.63C1331,312.06,1337.76,332.37,1346.81,327.09Zm1.31-.37c.82,1.15,1.66,1.61,2.56,1-1-1.92.92-3.71-.16-5.64C1349.29,323.6,1349.74,325.21,1348.12,326.72Zm133.4-105.43c2.76-5.81,7.41-16.08,3.09-19.36C1483.05,208.36,1481.07,214.77,1481.52,221.29Zm-8.09,23.89c-4.62,6-10.12,11.94-6.52,18.33,11.29-12.46,12.44-25.41,14-38.34C1476,231.72,1475.05,238.47,1473.43,245.18ZM1451,278.79c3.71-4.6,7.07-9.2,7.18-14C1454.83,266.59,1449.33,274.07,1451,278.79Zm-2.92,6.79c-.42-1.76,2.33-3.36,1.11-5.15C1445.88,279.76,1444.13,285,1448.08,285.58Zm9.23-2.59c3-1.09,4.84-4.64,4.28-8C1458,276,1453.8,279.45,1457.31,283ZM1379.66,22.61c17.65,9.73,37.63,20.2,54.15,36.86,9.28,9.36,20,19,27.17,29.92,9.23,14,14,31.14,20.78,45.65.42.5,1.26,1,.87,0,.59-17.87-10-35.63-24.69-54.51-3.82-4.92-7-10.22-10.58-14.38-8.29-9.57-21-18-31.67-26.67S1394,22.29,1383.37,17.59c-9.53-4.21-22-6.21-32.95-8.95-11.59-2.9-23.12-5.88-33-7.23-12-1.62-27.09-2.67-38.23,1.63C1310.72,5,1348.57,5.48,1379.66,22.61Zm21,40.47c4-3.86-1.54-14.31-7.37-9a1.83,1.83,0,0,1-.08,1.73c2.64,2.18,5.27,4.52,8,5.15C1400.56,61.42,1399.37,63.92,1400.69,63.08ZM1212.34,346.64c-10.59-7-20.25-10-30-15.75C1191.94,338.17,1203.87,345.54,1212.34,346.64Zm184.92-14.08c-8.69.42-18,14-26.4,8.26-1.17-.92,2.29-1.62.12-2.59-3.69.22-2.21,2.54-3.71,5-11.31,9.29-25.84,8.83-38.48,15.92-3.68-3.2-7.63-.71-11.24-.54-2.11.1-4.09-1.2-6-1.16-1.57,0-2.84,1.37-4.41,1.53-16.21,1.62-32.81-3.52-49.67-3.69-8.14-2-16.12-7.32-24.51-4.22,2.22,1.81,4.53,2,6.76,3.8-3.14,2.59,3.14,5.64,1.76,8.32,9.41,2.72,21.63-5,29.54-1.18-2,1.57-3.79.62-5.73,1.89,4.47,3.12,9.33-1.69,13.84.66a13.42,13.42,0,0,0-3.67,4.17c3.08,2.18,6.22,2.91,9.47,1.32-.77-1.92-2.16-3.86-1-5.69,19.09,5.75,39-4.88,58.16-1.53,4.53-7.84,11.94-3.57,17.76-8.69,3.65,2.25,7.27,5.08,11,4.87,2.85-1.17,2.06-6.25,3.46-8.94,4.3-3.28,11.92-1.81,16.69-4.4s10.83-10.09,18.54-16c7.06-5.43,15.44-12.91,21.14-15.89.9-.48,2.8-.12,3.5-.7.33-.28.3-2.59,1-3.42,1.84-2.06,5.26-3.35,5.9-5.35.32-5.63,2.13-13.48,2.15-17.67C1432,303.59,1413.58,320.63,1397.26,332.56Zm-15.66-61.88c-4.53-1.91-9.22-.57-14,3.65-1.24,1.24.89,2.65,2,4-7.86,0-22,3.41-25,14.41-19.74,4.84-39.11,1.76-58.91,8-4.66-2.34-9.49-1.07-14.09-4.58-4.85.36-10.28-1.51-15.48-2.48s-11.09-3.88-15.16-.29c22.87,17.28,46.81,12.11,70.18,19,13.68-12.61,32.49-8.23,47.21-17.24s25.63-21.23,36.72-33.35c11.85-12.94,19.26-27.36,22.43-42.7C1405.64,236.54,1396.05,254.34,1381.6,270.68Zm-32.1,18.39c1.22-1.22,2.32-.07,3.42,1C1351.69,291.6,1350.59,290.45,1349.5,289.07ZM1376.28,273c1.22,2.18-.75,2.82-1.89,3.38C1374.35,275.24,1375.17,274.12,1376.28,273Zm-11.92,31.51c2.08.59,2.73-3.53,4-2.84,2.56,3.42,4.75,9.05,9.06,10-2.13,4.09,6.11,8.67,4.15,12.77-1.35.65-3.82,1.57-1.89,3.38,3.4.73,12.69-5.25,12.11-8.52,0-2.41-4.1,1.45-5.64.16-7.87-8.3-10-15.26-16.18-24.19C1366.9,295.41,1360.51,301.33,1364.36,304.53ZM1247.09,47.89c6.94,1.5,13.24-8.55,5.4-13.18-3.07-1.81-7.62.14-9.72,3.87C1240.08,43.34,1243.05,47,1247.09,47.89Zm61.39-23.5c2,2.93,4.33,0,6.38,2.48.53,3.53-1.79,8.63,1.65,10.92,4.38-3.17,3.07-10.22,2-15.08C1315.45,22,1310.39,19.9,1308.48,24.39Zm25.57,18.14c6.48-.51,3.26-13.8,12.32-12.85,5.09,5.45-3.06,10.26,1,15.66,4.72-2.48,7.77-12.5,4.71-16.68-4.56-6.24-9.62,1.14-15-4.62A28.35,28.35,0,0,0,1334.05,42.53Zm61.29,5.55c-5,1.75-11.29,6.45-10.1,11.65-10.13,5.07,4,19.68,11.41,15.29-4.38-5-14.16-7.26-9.22-15.61,5.44-1.93,10.36,6.88,15.69,7.25,3.88-3.71,3.61-7.63,3.59-11.53C1403.07,49.67,1399.21,48.79,1395.34,48.08ZM1273,321.37c-.64,4.3-3.09,8.52-.62,13-4.69,4-1.32,8.32-5.36,12.31-1.59,0-3.1-1.66-4.82,1.07,5,3.28,12,5.34,15.94,2.07-1.62-2.59-3.43-.77-5-3.71.9-4,1.67-8,.59-12.11,4.32-5.29,3.33-10.83,4.25-16.27-3.35-2.57-6.86-1.58-10.47,1.23C1268.1,322.52,1271,320,1273,321.37Zm40-3.27c-5.18-3.35-13.1,1-15.08,7.07-2,6.27,6.49,19.53,14.54,13.28,1.62-.66,3,4.47,4.65,2.39C1319.94,334.18,1320.48,322.94,1313,318.1ZM1311.75,335c-1.79,1.19-3.49.39-5.23.61m8.4-3.5c2.82,1.27-1.06,3.27-.7,5.6-.41-.59-.84-.71-1.28-.49C1311.62,335.37,1316,333.85,1314.92,332.06Zm.82,10c-3.08,6.18-8,7.52-13,8.48C1305,359.4,1324.32,347.38,1315.74,342.07Zm25-32.61c-4.83.64-8.06,5.1-9.6,10.37,2.06,5.8,4.29,12.6,10.66,12.66,2.49,0,3.84-2.83,6.22-3.17,2.91-.42,3.5,3.39,6,1.16C1355.75,323.61,1350.24,308.19,1340.72,309.46Zm9.8,12.61c1.08,1.93-.88,3.72.16,5.64-.9.62-1.74.16-2.56-1C1349.74,325.21,1349.29,323.6,1350.52,322.07Zm55-35.94c6,5.08,14.57-4.6,9.6-10.37-1.93-2.24-3.61-1.18-6.39-2.48C1401.94,278.63,1401.83,283,1405.57,286.13Zm-63.47,57.65c5.59,6.11,17.21-5.21,13.11-11.08-.7-.55-1.45-.09-2.15-.54C1351.05,337.68,1348.39,341.37,1342.1,343.78Z"/><path class="cls-2" d="M47,92.16c3.91-5.72,7.22-7.53,10.53-5.42s4.82,3.91,4.82,5.72a38.68,38.68,0,0,0,3.31,9.33,127.66,127.66,0,0,1,6.62,17.46c2.71,7.22,4.22,17.45,5.12,30.69s2.71,22,5.11,25.89,7.53,1.2,15-7.83c15.65-18.36,27.69-33.71,39.73-44.54,6.32-5.72,10.83-9.93,14.14-12.94s7.53-6.62,12.65-10.84c10.83-8.42,14.74-6,18-2.71a15.6,15.6,0,0,1,3.62,5.72c.9,2.41.3,9-1.51,20.17-1.81,10.83-3.61,21.67-5.42,32.8-1.5,10.84-2.71,20.17-3.31,28.29-1.2,16,1.21,17.46,4.82,18.36,1.8.3,3.91-.3,6.62-1.8s6-5.12,9.93-10.24q5.86-8.11-3.61,9c-6.32,11.14-11.74,17.76-16.55,19.87s-8.13,2.4-10.24,1.5c-3.91-2.11-6.92-4.82-9.63-14.15a37.26,37.26,0,0,1-1.2-15.34c.6-5.42,1.5-13.25,3-23.48s2.71-17.15,3.31-21.07,1.2-9,2.11-14.74c1.5-11.74-5.12-7.23-19.87,9.63q-10.83,12.63-26.18,31.6c-9.93,12.34-17.16,19.86-21.37,22s-7.22,3.31-9.33,3.61c-3.91.3-10.83-1.2-17.16-6-6-4.82-7.52-20.77-9.93-41.23A154,154,0,0,0,57,128.88c-1.2-5.12-5.11.6-12,16.55s-11.73,27.69-14.44,35.81c-2.71,7.83-5.42,15.65-8.73,23.18-3,7.52-5.42,12-6.92,13.54-3.31,3.31-9.63,1.21-12.94-1.5-5.42-5.42,2.4-13.85,3.91-19.57.6-2.71,3.61-10.53,8.73-23.47Q22.65,154,25.36,144.53c2.11-6.32,5.12-15.35,9.63-26.79C39.51,106,43.42,97.58,47,92.16Z"/><path class="cls-2" d="M246.26,154.46c4.82-1.21,10.54-.3,13.85,2.41,1.8,1.2,3.31,3.61,4.81,7.52,2.71,7.22-5.12,10.53-9.63,6s-9.33,0-14.14,2.71a65.5,65.5,0,0,0-9,6A73.76,73.76,0,0,0,221,190c-3.61,4.52-5.72,7.22-6,8.43-.9,2.41,3.91-1.21,13.54-7.53,4.82-3.31,10.84-6.32,17.76-9.63,14.45-6.92,16.25-3.91,18.66,0,4.82,6.93,1.81,6.32-.3,14.15-2.71,10.23,3.31,16,9.93,15.05,2.71-.3,6-2.41,9.93-6s3.62-2.71-.6,2.41c-12.34,15.35-15.35,12.94-21.07,10.83-4.51-1.5-8.42-5.42-10.83-10.23-2.41-6-3.31-11.74-10.23-10.84a57,57,0,0,0-10.84,6.93,136.19,136.19,0,0,1-14.44,9c-15.05,7.23-19.87,8.43-22,3a17.23,17.23,0,0,1-2.11-6.32,13.45,13.45,0,0,1,.9-6.92c.9-2.41,3.91-6.92,9.33-13.84a129.25,129.25,0,0,1,15.65-17.16C228.2,162.58,241.75,156,246.26,154.46Z"/><path class="cls-2" d="M329.63,71.09c4.21-5.42,10.53-.9,16.25,7.53,2.1,3,3.61,9,5.11,18.35a96.28,96.28,0,0,1,.91,26.19c-.91,8.42-1.81,13.84-2.71,16-.6,2.11.3,4.51,3,7.22,5.11,5.12,4.21,9.63.6,12.34a6.36,6.36,0,0,1-5.42,1.51c-1.8-.61-3.91,2.1-6.32,7.82a140.54,140.54,0,0,1-17.45,31.6c-2.71,3.92-6.63,7.83-11.44,12-4.52,3.91-8.13,6.32-10.84,6.92-6.92,1.51-14.44.91-15-19.86-.3-14.45,7.22-29.19,30.09-40,11.44-5.42,15.35-7.22,11.74-5.72s-17.46,3.61-41.53,6c-23.78,2.41-22.88,1.81,3.31-1.8s40.63-6.62,43.34-9.33c5.11-5.12,7.22-19.26,7.22-29.8.3-10.53,0-20.77-8.13-31.3C324.81,75.91,327.22,74.4,329.63,71.09Zm-9.94,100.82c-2.1.91-5.11,3.62-9,7.53-8.12,7.52-10.83,14.74-9.63,18.66.91,2.1,3.92.3,9-4.82,5.12-5.42,8.73-9.93,10.24-13.24C323.61,172.82,324.21,170.41,319.69,171.91Z"/><path class="cls-2" d="M402.76,154.46c4.81-1.21,10.53-.3,13.84,2.41,1.81,1.2,3.31,3.61,4.82,7.52,2.71,7.22-5.12,10.53-9.63,6s-9.33,0-14.15,2.71a65.5,65.5,0,0,0-9,6A74.21,74.21,0,0,0,377.48,190c-3.62,4.52-5.72,7.22-6,8.43-.91,2.41,3.91-1.21,13.54-7.53,4.82-3.31,10.84-6.32,17.76-9.63,14.44-6.92,16.25-3.91,18.66,0,4.81,6.93,1.8,6.32-.3,14.15-2.71,10.23,3.31,16,9.93,15.05,2.71-.3,6-2.41,9.93-6s3.61-2.71-.6,2.41C428,222.18,425,219.77,419.31,217.66c-4.51-1.5-8.43-5.42-10.83-10.23-2.41-6-3.31-11.74-10.24-10.84a57.32,57.32,0,0,0-10.83,6.93,136.26,136.26,0,0,1-14.45,9c-15,7.23-19.86,8.43-22,3a17.39,17.39,0,0,1-2.1-6.32,13.35,13.35,0,0,1,.9-6.92c.9-2.41,3.91-6.92,9.33-13.84a127.9,127.9,0,0,1,15.65-17.16C384.7,162.58,398.24,156,402.76,154.46Z"/><path class="cls-2" d="M457.23,157.17c12-15,14.45-2.71,15.35.6a24.05,24.05,0,0,1,1.5,6.62c.61,2.71-1.5,8.43-6,16.85-4.51,8.13-4.21,9.33.91,3,14.44-19.26,25.58-12.34,28.89-6,1.5,4.52,1.5,11.14,2.71,12,.6.3,3.91-2.41,9.63-8.72,6-6.32,11.13-10.54,15.65-12.65,13.24-6,17.45,2.11,27.09,20.77,3.61,6.62,7.22,11.44,11.13,14.45s7.22,4.81,9.93,5.41q4.51.91,15.35-4.51c7.53-3.91,9-4.51,5.12-2.11-8.13,4.52-17.46,7.83-21.07,9.94-3.31,1.5-9.63,3.91-14.75,1.5s-9-5.42-16.25-14.75c-9.63-13.84-11.43-17.15-20.16-9.33-2.41,2.11-5.72,5.12-10.24,9-8.42,7.53-13.24,18.06-14.44,20.47-.3,1.2-1.51,3-3.61,5.11-3.92,4.52-8.43,2.11-9.94-.6s.61-11.43,1.51-17.76q.45-5,.9-10.83c.3-3.91-.6-6-3.31-6.32s-6.92,2.41-12.94,8.43c-11.74,11.73-12.64,17.75-14.75,20.46a26.7,26.7,0,0,1-3,3c-2.1,1.51-10.53-1.2-11.43-3.91-.3-1.51.3-4.82,2.1-9.63,2.11-4.82,4.52-12.34,7.53-22.27s5.11-16.25,6.32-19-6.92,2.1-24.38,14.44-22.27,15.35-14.75,9C433.15,177.63,449.7,167.1,457.23,157.17Z"/><path class="cls-2" d="M608,153.56c12.94-.91,13.84,5.41,13.54,13.84,0,8.13-8.43,13.24-20.76,19-7.53,3.31-10.54-.6-11.44.9-3.61,5.72-3.61,11.44,0,16.26,2.11,2.4,4.21,3.91,6.32,4.21,4.81.9,8.12.3,21.67-5.42s17.15-10.53,22-15.05q3.62-3.6.9,0c-3.31,4.52-8.12,11.44-16.25,18.36-7.52,6.32-10.84,9.63-19.26,12.34-13.55,4.82-22-1.8-26.19-6-4.21-4.81-9-14.14-2.7-29.49C581.22,168.9,590.25,158.67,608,153.56Zm0,13.24c-.6-.6-2.41-.3-5.12,1.2-5.11,2.41-7.82,6.92-6.62,8.43C598.68,177.63,612.52,170.11,608,166.8Z"/><path class="cls-3" d="M822.89,97q17.16-15.8,21.67-15.34,5,.45,7.22,6.31c3.31,7.53,3.62,9.94-3.31,10.24q-5,.45-16.25,12.64c-7.52,8.12-12.94,14.74-16.85,19.56s-8.73,10.53-15,17.46c-6,6.92-9.93,11.43-11.74,14.14q-2.25,4.07-29.79,28.89c-18.36,16.56-28.9,25.59-31.91,27.09-5.71,2.71-15.35,3.91-20.46.6-5.12-3.61-8.13-7.22-9.63-23.77a117.89,117.89,0,0,1,.6-23.18c2.11-14.44,1.8-18.36,3-25.58.9-3.61,1.2-9.63,1.5-18.06s.3-14.44-.3-17.75c-.9-6.93,2.41-14.15,7.53-15,5.72-1.21,6-1.21,9.93,3.61a15.13,15.13,0,0,1,3.61,8.73,190.34,190.34,0,0,1,.3,20.76,211.21,211.21,0,0,1-3,30.7c-3.31,20.17-2.1,36.42.3,37.62,2.41.91,7.23-3.61,16.86-11.13,4.81-3.91,8.42-6.92,10.53-9S754,169.81,760,163.49c6-6.62,13.24-14.15,22-22.88s14.75-15.35,18.36-20.46S811.45,107.51,822.89,97Z"/><path class="cls-3" d="M870.44,154.46c4.82-1.21,10.54-.3,13.85,2.41,1.8,1.2,3.31,3.61,4.81,7.52,2.71,7.22-5.12,10.53-9.63,6s-9.33,0-14.15,2.71a66.11,66.11,0,0,0-9,6A73.76,73.76,0,0,0,845.16,190c-3.61,4.52-5.72,7.22-6,8.43-.9,2.41,3.91-1.21,13.54-7.53,4.82-3.31,10.84-6.32,17.76-9.63,14.45-6.92,16.25-3.91,18.66,0,4.82,6.93,1.81,6.32-.3,14.15-2.71,10.23,3.31,16,9.93,15.05,2.71-.3,6-2.41,9.93-6s3.61-2.71-.6,2.41c-12.34,15.35-15.35,12.94-21.07,10.83-4.51-1.5-8.42-5.42-10.83-10.23-2.41-6-3.31-11.74-10.23-10.84a57,57,0,0,0-10.84,6.93,136.19,136.19,0,0,1-14.44,9c-15,7.23-19.87,8.43-22,3a17.23,17.23,0,0,1-2.11-6.32,13.45,13.45,0,0,1,.9-6.92c.9-2.41,3.91-6.92,9.33-13.84a129.25,129.25,0,0,1,15.65-17.16C852.38,162.58,865.93,156,870.44,154.46Z"/><path class="cls-3" d="M937.85,157.47c19.27-7.53,24.68-1.81,24.68,5.72,0,3.61-3.31,5.71-10.23,6-13.54.3-24.38,6.92-27.09,19.86-2.71,12.34,7.53,19,15.65,18.66,11.14-1.21,19.57-3.61,35.22-16.55,5.11-4.22,5.11-3.62-.3,1.8-5.42,5.12-10.24,9.63-14.75,13.54-12.94,10.54-20.17,12.95-34,12.34-9.33-.9-19.26-10.53-19.26-22.57C909.26,178.84,912,169.21,937.85,157.47Z"/><path class="cls-3" d="M1019.71,154.46c4.82-1.21,10.54-.3,13.85,2.41,1.8,1.2,3.31,3.61,4.81,7.52,2.71,7.22-5.11,10.53-9.63,6s-9.33,0-14.14,2.71a65.5,65.5,0,0,0-9,6A74.7,74.7,0,0,0,994.43,190c-3.61,4.52-5.72,7.22-6,8.43-.9,2.41,3.92-1.21,13.55-7.53,4.81-3.31,10.83-6.32,17.75-9.63,14.45-6.92,16.26-3.91,18.66,0,4.82,6.93,1.81,6.32-.3,14.15-2.71,10.23,3.31,16,9.93,15.05,2.71-.3,6-2.41,9.94-6s3.61-2.71-.61,2.41c-12.34,15.35-15.35,12.94-21.06,10.83-4.52-1.5-8.43-5.42-10.84-10.23-2.41-6-3.31-11.74-10.23-10.84a57,57,0,0,0-10.84,6.93,136.19,136.19,0,0,1-14.44,9c-15,7.23-19.87,8.43-22,3a17.23,17.23,0,0,1-2.11-6.32,13.45,13.45,0,0,1,.9-6.92c.91-2.41,3.92-6.92,9.33-13.84a129.25,129.25,0,0,1,15.65-17.16C1001.66,162.58,1015.2,156,1019.71,154.46Z"/><path class="cls-3" d="M1077.5,154.16c2.1-.91,4.51-.91,7.82.6,3.31,1.2,3.91,3.61,2.11,7.52s-4.82,9.94-9,18.66c-3.91,8.43-4.52,10.84-1.21,6.92a114.8,114.8,0,0,1,12-12c4.52-3.92,7.83-6.62,9.93-7.53,4.52-2.41,9-4.21,15-2.1,6,1.5,10.84,8.42,11.14,27.38.3,9.33,2.41,13.85,6.92,13.55a24.47,24.47,0,0,0,12.94-4.82c8.43-6,12.94-15.05,12-11.74a15.77,15.77,0,0,1-3.31,6.32,140,140,0,0,1-12.64,13.25c-6.32,6-11.74,9-16.55,9-9.33,0-12.64-7.23-14.15-23.78-.6-8.43-1.8-12.64-3.31-12.94s-4.81,1.5-10.23,4.81c-10.54,6.32-19.56,19-25.28,26.49-5.72,7.22-9.93,8.43-13.25,4.81-2.7-3.91-1.2-8.72,1.21-20.46a123.34,123.34,0,0,1,5.42-18.36c2.4-6.62,1.8-8.73-1.51-6.62s-7.52,5.72-12.64,10.23-3.31,2.41,5.12-6.32c8.73-9,13.24-14.14,14.14-15.65C1072.38,158.67,1073.58,156.26,1077.5,154.16Z"/><path class="cls-3" d="M1180.42,157.47c19.27-7.53,24.68-1.81,24.68,5.72,0,3.61-3.31,5.71-10.23,6-13.54.3-24.38,6.92-27.09,19.86-2.71,12.34,7.53,19,15.65,18.66,11.14-1.21,19.57-3.61,35.22-16.55,5.11-4.22,5.11-3.62-.31,1.8-5.41,5.12-10.23,9.63-14.74,13.54-12.94,10.54-20.17,12.95-34,12.34-9.33-.9-19.26-10.53-19.26-22.57C1151.83,178.84,1154.54,169.21,1180.42,157.47Z"/><path class="cls-3" d="M1247.53,153.56c13-.91,13.85,5.41,13.55,13.84,0,8.13-8.43,13.24-20.77,19-7.52,3.31-10.53-.6-11.44.9-3.61,5.72-3.61,11.44,0,16.26,2.11,2.4,4.22,3.91,6.32,4.21,4.82.9,8.13.3,21.67-5.42s17.16-10.53,22-15.05q3.6-3.6.9,0c-3.31,4.52-8.13,11.44-16.25,18.36-7.53,6.32-10.84,9.63-19.27,12.34-13.54,4.82-22-1.8-26.18-6-4.21-4.81-9-14.14-2.71-29.49C1220.75,168.9,1229.78,158.67,1247.53,153.56Zm0,13.24c-.6-.6-2.4-.3-5.11,1.2-5.12,2.41-7.83,6.92-6.62,8.43C1238.2,177.63,1252.05,170.11,1247.53,166.8Z"/><path class="cls-3" d="M1308,140.91a29.47,29.47,0,0,1,11.74-3.61c8.12-1.2,9.33,4.22,6,8.13-1.5,2.11-3.91,3-6.62,3.31-5.72.3-13.54,9-14.74,19.56-.31,5.12-.31,8.43.6,10.54.9,1.8,1.5,5.71,2.41,11.43s.3,10.54-1.81,14.75c-5.42,11.14-15.35,14.15-24.38,14.15a19.65,19.65,0,0,1-7.82-1.81c-2.71-1.2-4.52-3.61-5.12-7.22s4.52-10.24,15.35-20.17q16.69-14.9,2.71-.9t-10.84,17.15a6.61,6.61,0,0,0,7.23,1.81c8.12-2.71,11.73-11.14,11.13-18.06a94.46,94.46,0,0,0-2.1-14.74q-2.27-11.29,0-17.16C1294.48,150.55,1300.5,144.83,1308,140.91Z"/></g></g></svg>